<svg xmlns="http://www.w3.org/2000/svg" viewBox="0 0 296.97 179.81"><defs><style>.cls-1{fill:#575757;}.cls-2{fill:#b8480b;}.cls-3{fill:#b9470a;}.cls-4{fill:#b44413;}.cls-5{fill:#d2865e;}.cls-6{fill:#919191;}.cls-7{fill:#555;}.cls-8{fill:#565656;}.cls-9{fill:#d1865f;}.cls-10{fill:#909090;}.cls-11{fill:#b9480e;}.cls-12{fill:#b4480f;}.cls-13{fill:#d18154;}.cls-14{fill:#d0845a;}.cls-15{fill:#c5734b;}.cls-16{fill:#8d8d8d;}.cls-17{fill:#b0461a;}.cls-18{fill:#2c2c2c;}.cls-19{fill:#d08860;}.cls-20{fill:#8f8f8f;}.cls-21{fill:#545454;}.cls-22{fill:#aa4216;}.cls-23{fill:#b44811;}.cls-24{fill:#b6572a;}.cls-25{fill:#a43518;}.cls-26{fill:#a63d1d;}.cls-27{fill:#a53719;}.cls-28{fill:#ac4a28;}.cls-29{fill:#a6341a;}.cls-30{fill:#925358;}.cls-31{fill:#8c616a;}.cls-32{fill:#fefefe;}.cls-33{fill:#fdfdfd;}.cls-34{fill:#fbfbfb;}.cls-35{fill:#fafafa;}.cls-36{fill:#f9f9f9;}.cls-37{fill:#fdfefd;}.cls-38{fill:#fafaf6;}.cls-39{fill:#faf9f3;}.cls-40{fill:#f8f7f3;}.cls-41{fill:#f9faf5;}.cls-42{fill:#f6f5ed;}.cls-43{fill:#f6f0df;}.cls-44{fill:#faf5dd;}.cls-45{fill:#fae4c9;}.cls-46{fill:#fcdebc;}.cls-47{fill:#fcfcfb;}.cls-48{fill:#faf9f4;}.cls-49{fill:#f2eae3;}.cls-50{fill:#f2eee7;}.cls-51{fill:#f1fcf6;}.cls-52{fill:#f8f5eb;}.cls-53{fill:#fdf8f1;}.cls-54{fill:#f7f7f1;}.cls-55{fill:#f6f8f3;}.cls-56{fill:#f8e0de;}.cls-57{fill:#feeed4;}.cls-58{fill:#feebda;}.cls-59{fill:#f6f3dc;}.cls-60{fill:#f9ece3;}</style></defs><g id="Capa_2" data-name="Capa 2"><g id="Capa_1-2" data-name="Capa 1"><path class="cls-1" d="M171.27,42.46c.29,2.54.07,5.1.11,7.65,0,.92-.21,1.9,1.31,1.65.7-.11.43.54.43.86,0,2.6,0,5.2,0,7.8,0,.77.18,1,1,1,5.44,0,10.87,0,16.31-.05.84,0,1,.23,1,1,0,11.32,0,22.64-.05,34,0,1,.17,1.49,1.28,1.3a10.12,10.12,0,0,1,1.56,0c.5,0,.81,0,.89.71.1,1.06,1,.36,1.61.51s.72-.2.71-.74c0-3.68,0-7.36,0-11l0-28.8a2,2,0,0,1,.13-.37l7.21,5.81c0-.62.07-1.11.07-1.6,0-6,0-12.08-.06-18.11,0-1.11.68-1,1.28-1,1-.08.52.65.52,1.08,0,5.95.18,11.91,0,17.86-.07,2.4.47,4.09,2.55,5.37a41.26,41.26,0,0,1,3.55,2.84,1.57,1.57,0,0,1,.64,1.43c0,4.27,0,8.55,0,12.83,0,.75.15,1.07,1,1,1.24-.07,2.48,0,3.72,0,.64,0,.81.18.8.81,0,2,0,3.92,0,5.88,0,.48-.19,1,.71,1s.74-.48.74-1c0-14.15,0-28.31,0-42.46,0-1.13.16-1.24,1.17-.74C225.53,51,229.75,53,234,55a1,1,0,0,1,.66,1.09c0,4,0,8,0,12,0,1,.36,1.07,1.17,1.09s1.17-.17,1.16-1.11c-.06-3.83,0-7.66,0-11.65.84.39,1.59.79,2.37,1.11.59.23.43.69.43,1.1,0,3.16,0,6.32,0,9.48,0,.84.23,1.07,1.07,1.06,2.15,0,2.15,0,2.15-2.11V59.22c1.72.83,3.31,1.63,4.92,2.37.57.27.42.71.42,1.12q0,7.74,0,15.47c0,12.24,0,24.48,0,36.71,0,1.15-.35,1.31-1.35,1.23a50.69,50.69,0,0,0-9.93,0,2,2,0,0,1-1.53-.44,88.16,88.16,0,0,0-7.77-5.39,1.62,1.62,0,0,1-1-1.64c.11-3.93-2.36-5.7-5.23-7.12a4.19,4.19,0,0,0-2.92,0,1.09,1.09,0,0,1-.88-.28c-3.62-2.41-10.08-.56-11.79,2.72-.2.4-.45.9-1.09.7a20.28,20.28,0,0,0-10.51,1.65,1.06,1.06,0,0,1-1.11,0,3.35,3.35,0,0,0-2.31-.42c-4.81.67-9.63,1.34-14.44,2.07-.95.14-1.28.14-.92-1a4.68,4.68,0,0,1,1.53-2.37A8.8,8.8,0,0,0,180.4,96a2,2,0,0,1,.21-1.35,7.24,7.24,0,0,0,.38-5.57,2.67,2.67,0,0,0-1.37-1.76,2,2,0,0,1-1.13-1.9,21.28,21.28,0,0,0-4.42-10.55,12.51,12.51,0,0,0-4.9-4,1,1,0,0,1-.63-.75,3.24,3.24,0,0,0-2-2.37,17.28,17.28,0,0,0-13.39-.07,3.08,3.08,0,0,0-2.06,2.45,1,1,0,0,1-.66.75c-4.86,2.22-7.09,6.5-8.65,11.25a15,15,0,0,0-.74,4c0,.52-.31.66-.65.88a4,4,0,0,0-2,3.68,7.49,7.49,0,0,0,.65,4,1,1,0,0,1,.05.69,8.74,8.74,0,0,0,2.55,8.53,7.83,7.83,0,0,1,2.47,3.79,11.59,11.59,0,0,0,1.51,3.49,1.19,1.19,0,0,1,.06,1.46c-1.49,1.55-2.16,3.62-3.42,5.31-.48.64-.93,1.17-1.81,1.11a2.37,2.37,0,0,0-.58.11,5,5,0,0,1-2,.35c-.77-.2-.35-1.14-.56-1.74-.88-2.55-4.61-4.77-7.29-3.88a10.91,10.91,0,0,1-4.66.35c-3-.29-6-.6-9.06-.88a1.92,1.92,0,0,1-1.15-.51,6.69,6.69,0,0,0-8.48-.41,4.26,4.26,0,0,1-2.28.58q-8.19,1-16.4,1.89a5.65,5.65,0,0,1-2-.16c-3.36-.79-5.88-.26-7.4,2a6.7,6.7,0,0,0,.56,8.21c.79.91.28,1.71.22,2.57,0,.29-.29.2-.47.14a5.74,5.74,0,0,1-1-.35c-3.15-1.71-3.51-1.76-6.67-.92V115.2c.82-.84,1.89-1.38,2.55-2.45a5.54,5.54,0,0,0-2-8c-.18-.1-.33-.22-.5-.33v-2.12c3.45.39,6.16,4.37,5.44,8a19.53,19.53,0,0,1-1.3,3.57c1.77-1.08,2.8-3.73,2.4-6.16-.58-3.48-2.28-6.08-5.83-7.17a1.43,1.43,0,0,1-.72-.4c0-.39,0-.79,0-1.19,0-12.88,0-25.75,0-38.63a1.56,1.56,0,0,1,1.06-1.7c1.38-.59,2.72-1.29,4.07-1.93.38.26.2.61.2.89,0,3.6,0,7.2,0,10.8,0,.83.19,1.08,1,1.06,2.1,0,2.1,0,2.1-2.15,0-3.6,0-7.2,0-10.8,0-1.08.25-1.71,1.29-2a13.81,13.81,0,0,0,1.62-.75v9.83c0,1.72,0,3.44,0,5.16,0,.58.17.77.75.74.75,0,1.52.06,2.27,0,1-.11,1.11.28,1.09,1.14-.06,2.24,0,4.48,0,6.72,0,.84.13,1.15,1.08,1.13,3.32-.07,6.64,0,10,0,.9,0,1.14.26,1.12,1.16-.06,3.28,0,6.56,0,9.84,0,.53-.28,1.19.77,1.21s.79-.62.79-1.16q0-21.34,0-42.7a1.57,1.57,0,0,1,1-1.7Q109.5,41,117.71,37c.83-.41,1.21-.35,1.59.54a6.25,6.25,0,0,1,.56,2.52c0,9.32,0,18.64,0,28a1.56,1.56,0,0,0,.43,1.3c1.89,1.77,3.74,3.58,5.81,5.56,0-2,.13-3.89,0-5.72a4.75,4.75,0,0,1,1.84-4.31C133.77,59.5,139.56,54,145.4,48.62c.39.2.18.57.18.84,0,4.08,0,8.16,0,12.24,0,.83.24,1.11,1.06,1.08a25,25,0,0,1,3.24.06c.71.06.83-.15.83-.84,0-8.16,0-16.31,0-24.47q0-9.48,0-19c0-.26-.16-.57.17-.76a2.05,2.05,0,0,1,.1,1.07q0,20.86,0,41.75a2.09,2.09,0,0,1-.06.93s-.06.06-.08.09H151c0-.4,0-.81,0-1.22v-41c0-1.72-.18-1.49,1.55-1.52a3,3,0,0,0,1.19-.08,18.72,18.72,0,0,0,.17-5.07c0-1,.31-1.19,1.18-1.19,2.26,0,2.26,0,2.26-2.31,0-2.75,0-5.51,0-8.26,0-.84.27-1,1-1s1.2-.07,1.18,1c-.06,3.23,0,6.47,0,9.7,0,.75.19.92.92.93,2.5,0,2.5,0,2.47,2.55,0,.32,0,.64,0,1,0,.83-.26,1.88.15,2.43s1.56.2,2.38.2c.62,0,.72.24.69.79-.05,1,0,2-.05,3,0,.68.18.89.86.9a17.27,17.27,0,0,1,4.37.15,28.67,28.67,0,0,1-3.89.14c.86,0,1.83,0,2.79,0,.73,0,1,.21,1,.95,0,2,0,4,0,6q0,5.63,0,11.26c0,.38-.15.8.14,1.15v.43a15.63,15.63,0,0,0-.14,3.68c0,1.61,0,3.23,0,4.85,0-2.45,0-4.91,0-7.36C171.14,43.23,171,42.82,171.27,42.46Z"/><path class="cls-1" d="M145.62,100.14c-.05.86-.09,1.73-.14,2.61-2.46-1.12-4-4.14-3.34-6.48.34-1.18.88-1.51,2.11-1.31.3.05.82.37.79-.27,0-.48,0-1.17-.66-1.31a5.43,5.43,0,0,0-1.56,0c-1,.09-1.27-.42-1.32-1.27-.15-2.2.48-2.88,2.71-2.9,1.87,0,3.75,0,5.66-.14-1.54-.26-3.08-.56-4.63-.76-.93-.12-1.21-.46-1.1-1.44.5-4.66,1.71-7.65,4.24-10.09l1.62,1.9.17-.09c-.33-.82-.65-1.66-1-2.47a.67.67,0,0,1,.27-1,18,18,0,0,1,2.72-1.49c.59-.26.76-.24.91.48q1,4.83,2.33,9.63c-.19-2.12-.36-4.25-.57-6.37s-.39-4-.61-5.95a.72.72,0,0,1,.54-.9,14.48,14.48,0,0,1,10.07,0c.66.23.56.63.51,1.12-.37,3.93-.73,7.87-.94,11.83l1.77-7.62s0-.08,0-.12c.32-.74.11-1.67.78-2.25.21-.18,3.32,1.59,3.52,1.92s0,.53-.08.79a17.93,17.93,0,0,0-.95,2.7c.43-.52.9-1,1.28-1.57s.59-.55,1,0a14,14,0,0,1,3.29,7.06c.14.7.22,1.42.3,2.13.17,1.58.17,1.58-1.44,1.85a38,38,0,0,0-4.37.9h5.86c2.29,0,3.23,1.29,2.59,3.51a.82.82,0,0,1-.89.63,11.88,11.88,0,0,1-1.79,0c-.83-.08-.89.45-1,1-.09.81.46.65.94.65a1.79,1.79,0,0,1,1.95,1.7,6,6,0,0,1-3.61,6.13c-.46.16-.69.3-.75.84-.6,5.4-3.89,9.12-7.84,12.41a4.05,4.05,0,0,1-2.7.8c-.48,0-.83.13-.66.68a4.48,4.48,0,0,1-.71,3.75,1.79,1.79,0,0,0-.21,1.51,17.31,17.31,0,0,0,5.42-3.59q-2,3.16-3.89,6.35a6.35,6.35,0,0,0,2.45-2.2,43.09,43.09,0,0,0,4.43-7.23c.5-1,0-2,.18-2.92A17.2,17.2,0,0,1,174,119a10.94,10.94,0,0,0,2.56,3,.83.83,0,0,0,.63.19,16.86,16.86,0,0,1,3.87.66c.53.11.69.37.83.84a14.32,14.32,0,0,1,.34,3.8c.15,4.58.24,9.15.36,13.95A70.31,70.31,0,0,0,183.67,125c1.89.66,3.74,1,5.21,2.26s3.36,2,4.85,3.27c.8.69,1.51,1.38.52,2.44a.59.59,0,0,0,.05.86c1.89,2.19,2.24,5,2.84,7.63a92.79,92.79,0,0,1,1.91,24.77,13,13,0,0,1-.83,4.91c-.36.79,0,1.8-.23,2.72-.83,4-2.83,5.72-7,5.81-10.92.26-21.83.09-32.75.13-2.72,0-5.43,0-8.15-.05a9.89,9.89,0,0,0-3.55-6.37c-.44-.36-1.17-.37-1.32-1.07.31-.56.9-.62,1.42-.8,3.44-1.15,6.89-2.3,10.39-3.59a3.41,3.41,0,0,0-1.16-1,46.24,46.24,0,0,0-5.87-3.48c-1.91-1-4-.9-6.1-.81-.6,0-.87.51-1.13,1-1.09,1.9-2.22,3.79-3.39,5.65-.3.47-.58,1-.91,1.41-.22.29-.38.87-.83.66s-.2-.71-.09-1.08c.43-1.45.78-2.93,1.19-4.26-1.59,2.51-3.08,5.22-4.48,8-.21.43-.48.85-.18,1.35-.58,1.46-.93,3-1.54,4.45-1.63,0-3.27,0-4.91-.1-3.56-.16-5.64-2-6.32-5.53a75.74,75.74,0,0,1-.82-21.78,75.42,75.42,0,0,1,3-15.84,4,4,0,0,1,.8-1.71c.78-.78,1.25-1.55.33-2.55-.31-.34-.06-.67.2-.95a9.45,9.45,0,0,1,2.2-1.83,10.87,10.87,0,0,0,1.75-1,19.21,19.21,0,0,1,7.56-3.66,1.25,1.25,0,0,0,1.08-1.1.93.93,0,0,1,.86-.83,28.21,28.21,0,0,1,3.39-.67c.58-.06.83.09.89.76.27,3,.58,6,.7,9.08a28,28,0,0,0,.69-10.28,1.31,1.31,0,0,1,.24-1.09,35.57,35.57,0,0,0,3-4.75c.15-.27.31-.65.56-.75,1.24-.48,1.07-1.54,1.22-2.54a3.92,3.92,0,0,0-.52-2.92c-1.76-2.73-2.12-5.89-2.49-9-.45-1.05.53-1.66.76-2.5l.12-.31c0-.84-.57-1.17-1.28-1.23s-1.13.51-1.42,1.08.24,1,.57,1.52S145.93,99.28,145.62,100.14Z"/><path class="cls-2" d="M128.25,123.12c.54,1.22.06,2-1.07,2.54s-2.21,1.35-3.45,2.11c0-1,0-1.77,0-2.59a1.37,1.37,0,0,0-1.34-1.53c-1.19-.13-2.38-.2-3.58-.24a1.14,1.14,0,0,0-1.34,1.29c0,3.84,0,7.68,0,11.52a1.12,1.12,0,0,0,1.34,1.27c.9-.06.93.3.73,1.06A75.61,75.61,0,0,0,117,156.88c0,1-.28,1.23-1.22,1.19-1.71-.08-3.43,0-5.15,0-.32,0-.81-.14-.84.4,0,.72.56.43.87.44,1.76,0,3.52,0,5.28,0,.79,0,1,.21,1,1,0,3.51-.26,7.06.57,10.51.42,1.75.47,3.54.88,5.28a21.6,21.6,0,0,0,1.7,3.64h-1c-7.76,0-15.52-.17-23.27.07-6.29.2-8-4-8.37-8.15a13.64,13.64,0,0,1,1.37-7.88c-2.8,2.76-3.14,7.85-.92,13.68-2.37-2.17-2.81-6.8-1.24-13.23-2.34,2.34-2.68,7.19-.89,12.72-2.16-1.83-2.46-6.56-.74-13.33-3,4.58-3,9-.82,13.79-2.34-2.52-3.36-8.22-.93-13.65-1.33,1.46-1.52,1.89-2.34,5.13-1-.48-.48-1.31-.47-2-.12-1,.6-1.76.73-2.85a11.65,11.65,0,0,0-1.92,3.93,18.8,18.8,0,0,0-2.24,2.13,2.1,2.1,0,0,1-2.15.58,1.13,1.13,0,0,1-.82-1.48c.08-.37-.2-.27-.34-.31a1.34,1.34,0,0,0-1.77,1c-.24.79-.69.91-1.41.89-1.75-.05-3.5,0-5.25,0-.28,0-.64-.2-.84.2,0,.19-.05.39-.08.59-.15,1.05.11,1.57,1.37,1.52,2.58-.1,5.18,0,7.77,0,0,1-.85,1.21-1.7,1.52a18,18,0,0,0,1.7,1.69,1.19,1.19,0,0,0,1.45.11c.52-.31.42-.8.18-1.3,0,.52,0,1.08-.63,1.24s-1.13-.25-1.53-.71-.12-1,.21-1.37a4.21,4.21,0,0,0,.59-1.18c1.51,0,3,0,4.54,0,.51,0,.82.06.91.63A11,11,0,0,0,82,178.75H72.15c-.3-1-1.29-1.67-1.24-2.92-.55.7-.23,1.14.15,1.59s.78.72.59,1.33c-2.76,0-5.52.08-8.27,0a4.11,4.11,0,0,1-3.76-2.71,14.92,14.92,0,0,1-1.13-7.14c0-.89.46-1.24,1.36-1.19a11,11,0,0,0,5.28-.79c.44-.2.78,0,1.15.12a6.6,6.6,0,0,0,6.56-1.58c3.12-2.92,6.14-5.94,9.2-8.92l-.27-.31c-1.45,1.15-2.93,2.28-4.36,3.46-1.87,1.55-3.7,3.16-5.57,4.72a4.05,4.05,0,0,1-5.69.05c-.35-.3-.51-.2-.79,0A10,10,0,0,1,59.79,166c-11.87.18-23.74.44-35.61.4A74.07,74.07,0,0,1,12.8,165c-1.3-.21-2.6-.41-3.89-.64a5.76,5.76,0,0,1-2.83-.86c-1.54-1.27-3.38-.95-5.15-1-.33,0-.9.29-.93-.37s.57-.43.9-.47c5.6-.68,11.24-.61,16.88-.73,9.27-.19,18.53-.43,27.8-.65.48,0,.88,0,1.2-.51q7.29-12.36,14.59-24.64c-.16-.4-.43-.3-.65-.29l-24,1.63c-3.62.25-7.25.47-10.88.73a.77.77,0,0,1-.85-.44c-1.09-2-2.17-3.9-3.27-5.85-.42-.73-.13-1,.61-1.11l13.33-1.42,15.24-1.62c1.59-.17,3.18-.3,4.77-.5.56-.07.79.22,1,.63a4.23,4.23,0,0,0,3,2.48c.67.13,1,.72,1.46,1.08.28-.1.2-.29.22-.42a3.16,3.16,0,0,1,4.73-2.36,1.6,1.6,0,0,1,.65.51c1.13,2.18,3.5,1.56,5.25,2.34.26.11.4-.2.57-.35a2,2,0,0,1,2.8-.16c1.92,1.4,4.31,1.54,6.44,2.37.49.19.59-.26.65-.62.4-2.61.79-5.21,1.19-7.81.07-.43,0-.66-.5-.7-2-.17-2.59-2.7-1.52-4.48.53-.88,2.64-1.12,3.73-.37a1.91,1.91,0,0,0,1.45.29c6.93-.81,13.86-1.72,20.81-2.32a1,1,0,0,0,.83-.53,2.8,2.8,0,0,1,4.57.05,2,2,0,0,0,1.83,1c4.17.37,8.34.81,12.51,1.22a13.55,13.55,0,0,1,1.83,1.72c.44.46.73,1,.35,1.6a1.1,1.1,0,0,1-1.25.48c-.75-.11-1-.63-.94-1.3,0-.14.07-.31-.16-.43a1.24,1.24,0,0,0,.31,1.51A2.49,2.49,0,0,1,128.25,123.12Z"/><path class="cls-2" d="M221.89,106a2.35,2.35,0,0,1,1.2,2.42c-.38,2.5.32,4,2.9,5.13s4.77,3.14,7.36,4.91l-5.94,2.07,0,.15c2.07-.21,4.14-.38,6.2-.63a65.49,65.49,0,0,1,12-.45c3,.19,6,.22,9,.35.66,0,.92-.14.9-.85-.05-2.08,0-4.16,0-6.24a3,3,0,0,0-.4-1.48,5.75,5.75,0,0,1-.38-.74,2.27,2.27,0,0,1,.4-2.66c.67-.55,1.22.4,1.8.71a2.9,2.9,0,0,1,1.5,2.8c0,2.52,0,5,0,7.55,0,.82.2,1.11,1,1.12,2.44,0,4.88.18,7.31.24,2.09.06,2.26.17,3,2.35l-15.08-.5c-3-.11-6.07-.24-9.11-.33A1.36,1.36,0,0,0,244,123.6c.3,2.45.65,4.9,1,7.34a1.41,1.41,0,0,0,1.51,1.27c5.53,0,11.07,0,16.61-.14l-14.51-1.28v-.14h17.85v-.11L248.77,129v-.13h17.66v-.15L248.35,127c5.84.07,11.66-.19,17.5-.14l-18-1.83h17.68l-17.82-2c3.28-.27,6.55.12,9.83.12s6.79.16,10.19.2c.7,0,.82.28.9.9.3,2.42.72,4.82,1,7.23.11,1,.72,1.51,1.69,2.21h-2.5l-18.71,0h-.84c-.41,0-.71.15-.78.58s.24.59.53.71c.84.36,1.7.68,2.56,1,5,1.85,10,3.66,15,5.55,1.19.45,2.3.08,3.42,0,2.19-.22,4.35-.61,6.53-.83s4.37.36,6.56.52a25.15,25.15,0,0,1,2.73.35c1.54.29,2,.88,2,2.41,0,1.72,0,3.44,0,5.15,0,.9.14,1.29,1.15,1.22,1.23-.1,2.48,0,3.72,0a1.8,1.8,0,0,1,2,1.5,2.37,2.37,0,0,1-1.07,2.9c-.26.14-.7.13-.59.58.25,1-.54,1.28-1.19,1.62-1.14.59-2.27,1.19-3.43,1.72a.91.91,0,0,0-.6,1.12c.1.64.62.37,1,.38,2.24,0,4.48,0,6.72,0,1,0,1.42.36,1.41,1.4,0,3.08-.05,6.16,0,9.24,0,1.09-.4,1.59-1.47,1.43-.84-.13-1.13.31-1.32,1a9.78,9.78,0,0,1-2.93,4.41,15.16,15.16,0,0,0,1.43-4c.07-.38.59-.88,0-1.13s-.76.35-.94.79a3.74,3.74,0,0,1-.28.52c-.6.12-.81-.38-1.13-.72.08-.56-.48-.41-.7-.65a2.13,2.13,0,0,1-1.51-.14c-3.18-1-7.91.21-10,3.54-.23.36-.48.75-1,.66a9.23,9.23,0,0,1-1.76-3.37,1,1,0,0,0-1.07-.85c-4.76,0-9.52,0-14.27,0-.84,0-1.08.47-1.31,1.1a9.38,9.38,0,0,1-4.23,5.26A15.81,15.81,0,0,0,257,167.74c-.58,4.21-1.83,8.08-5.27,10.91a15.54,15.54,0,0,0,2.59-10.92c-.16,1-.29,1.94-.51,2.9a14.75,14.75,0,0,1-3.33,6.79c-2,2.26-5,2.84-7.31.87-1.81-1.57-3.66-1.68-5.71-1.57-1,.05-1.39-.17-1.35-1.29.12-3.88-.08-7.76.13-11.63a23.08,23.08,0,0,1,1.35-6.78c.6-1.62,0-2.42-1.72-2.42-2.4,0-4.8,0-7.2,0-.67,0-1.07-.1-1-.9.06-.51.11-1-.74-1-.54,0-.42-.68-.46-1.06-.28-2.54-.51-5.09-.77-7.63-.27-2.69-.55-5.39-.95-8.09v5.88c0,3.68,0,7.35,0,11,0,1-.33,1.4-1.32,1.36s-1.91,0-2.87,0c-1.93,0-1.93,0-1.93-2,0-1.56,0-3.11,0-4.67q0-10.74,0-21.47c0-.76,0-1.48,1.06-1.47.77,0,.46-.63.46-1,0-3.27,0-6.55,0-9.83a7.75,7.75,0,0,1,.58-1.44,8.21,8.21,0,0,0,.88-5.33C221.65,106.67,221.27,106.24,221.89,106Z"/><path class="cls-1" d="M228.39,19.52c.28,2.79.08,5.58.09,8.38,0,.87.14,1.25,1.13,1.18,1.27-.11,2.56,0,3.84,0,.9-.05,1.21.16,1.2,1.15-.06,4.8,0,9.6,0,14.4,0,2.16,0,2.16,2.27,3.08a19.08,19.08,0,0,0,0-2c-.08-.76.1-1.12.93-1.31,1.88-.43,1.86-.49,1.89,1.44v.36c0,3.14,0,3.14,3.2,4.41V38.82c1.86,2,3.48,3.8,5.12,5.57.33.34.22.75.22,1.13,0,2.28,0,4.56,0,6.84,0,.39-.09.79.39,1,2.79,1.32,5.58,2.67,8.47,3.82-1.41-.93-2.78-1.91-4.23-2.76-.7-.41-.61-1-.53-1.52s.56-.91,1.18-1a17.88,17.88,0,0,1,12.08,2.72,1.47,1.47,0,0,1,.78,1.37c0,3.4,0,6.79,0,10.19,0,1-.51,1.45-1.48,1.45-1.88,0-3.76,0-5.64,0a3,3,0,0,1-1.35-.41c-1.47-.71-2.91-1.49-4.41-2.13-.91-.4-1.37-1-1.19-1.93.36-1.9-.48-2.79-2.22-3.61-12.79-6-25.52-12.22-38.26-18.36Q201,36,190.2,30.81c-.6-.29-1.22-.55-2-.9,0,2.06,0,4,0,5.88,0,.59.49.69.87.84a1.34,1.34,0,0,1,.91,1.48c-.05,1.67,0,3.36,0,5a1,1,0,0,1-1.1,1.23c-1.91.16-1.9.17-2.47-1.66-.08-.27,0-.67-.37-.83,0,1.44,0,2.86,0,4.28a1.13,1.13,0,0,0,.81,1.23,4,4,0,0,1,2.24,4.85,4.09,4.09,0,0,1-4.48,3c-2-.21-3.49-2.45-2.66-4.19.35.52.65,1,1,1.47a2.6,2.6,0,0,0,3,.92,2.3,2.3,0,0,0,1.6-2.29,2.26,2.26,0,0,0-1.83-2.36,1.67,1.67,0,0,1-1.45-2.17c.35-1.88-.29-3.1-2.2-3.59-1.39-.35-1.82-1.29-1.69-2.69s0-2.72,0-4.08c0-.78.26-1.36,1.19-1.23.64.09.7-.25.69-.76,0-2.2,0-4.4,0-6.6,0-.65-.35-.79-.78-1a1.71,1.71,0,0,1-.36-3.06c2-1.76,2-1.76,4.38-.59l25,12c.18.09.34.2.51.3a.76.76,0,0,1-.3.83c-1.09,1.05-1.09,1.43-.06,2.52a4.54,4.54,0,0,0,.38.37c-.19-.4-.55-.61-.74-1a1,1,0,0,1,.1-1.31c.44-.41.87-.22,1.29.09s.45.52.77.63c-.33-.69-1.19-1.06-1.17-2,2.54.94,4.88,2.33,7.35,3.42l1.53.7c0-3.06,0-6,0-8.93,0-1.65,0-1.66,1.71-1.66,1.24,0,2.48,0,3.72,0,.66,0,.78-.2.78-.82,0-2.53,0-5.07.07-7.6,0-.23.29-.22.41-.35-.63-.52-.27-.7.28-.71s1.12-.23,1.06.65c0,.47,0,.94,0,1.52,0,.05.22-.12.07-.09s0,0,0-.08A5.51,5.51,0,0,1,228.39,19.52Z"/><path class="cls-1" d="M133.13,38.93c-.08.31-.14.62-.23.92-.49,1.75-1.1,2.11-2.86,1.72-.61-.13-.74-.54-.75-1.06,0-1.79,0-3.59,0-5.39a1.32,1.32,0,0,1,1.08-1.27,1.06,1.06,0,0,0,.8-1.23c0-1.79,0-3.58,0-5.48l-9.54,4.57Q94.84,44.61,68.07,57.5c-.77.37-1.14.78-1,1.59.4,2.08-.7,2.95-2.41,4-3.24,2-6.64,2-10.16,1.89a1.41,1.41,0,0,1-1.59-1.63q0-4.91,0-9.83A1.58,1.58,0,0,1,54,51.83a3.83,3.83,0,0,0,.65-.3c3.26-2.24,6.92-2.66,10.74-2.34.77.06,1.41.18,1.66,1.05s-.21,1.27-.89,1.69a30,30,0,0,0-4,2.82C65,53.38,67.89,52,70.75,50.64c.48-.23.39-.62.39-1,0-2.32,0-4.63,0-6.95,0-.35-.08-.7.21-1,1.64-1.78,3.26-3.58,5-5.55V47.76A16.66,16.66,0,0,0,79.3,46.5c.4-.16.28-.54.28-.83,0-1.24,0-2.48,0-3.72,0-.23,0-.64.11-.65a7.86,7.86,0,0,1,2.43.5c.52.09.33.56.34.89,0,.71,0,1.41,0,2.29l9-4.29c3.16-1.52,6.33-3,9.47-4.59a5.24,5.24,0,0,0,2.81-4.51c.22-2.5,0-5,.08-7.55.07-1.83,1.34-3.2,2.19-4.7.29-.51,1.29-.22,1.93-.16,1,.11,1.24-.28,1.22-1.25-.06-3.88,0-7.76,0-11.64,0-.66-.27-1.37,1-1.36s.93.81.93,1.44c0,3.92,0,7.83,0,11.75,0,.84.2,1.21,1,1,1.8-.38,2.68.48,3.35,2.08a8.59,8.59,0,0,1,1,4.11c-.09,1,0,2.08,0,3.3,1.55-.73,3-1.4,4.46-2.1,4.85-2.33,9.7-4.66,14.53-7,.62-.3,1.06-.35,1.54.21a10.57,10.57,0,0,0,1.19,1c1.35,1.15,1.19,2.47-.38,3.27-.24.13-.46.29-.69.44a26.28,26.28,0,0,1,0,4.61h0c-.56.35-1,1.11-1.82.65a8.58,8.58,0,0,1-.22-3.07c0-.81-.38-.84-1-.5a1.2,1.2,0,0,0-.7,1,28.15,28.15,0,0,0,.14,5.35,1.78,1.78,0,0,1-.08,1.16,7.75,7.75,0,0,0-.17,4A2,2,0,0,1,133.13,38.93Z"/><path class="cls-2" d="M215.38,179.23c-1.88.14-3.14-.95-4.29-2.21a10.89,10.89,0,0,1-1.61-2.49,12,12,0,0,1-2.28,3.18,5.57,5.57,0,0,1-4,1.62c-1.27-.05-2.55,0-4,0a16.36,16.36,0,0,0,2-4.94A65.93,65.93,0,0,0,202.34,157c-.07-1,.17-1.28,1.19-1.26,2.69.07,2.69,0,2.69,2.71,0,1.08,0,2.15,0,3.23,0,.57.19.77.77.76,1.6,0,3.19,0,4.79,0,.58,0,.75-.17.75-.75,0-1.8,0-3.59,0-5.39,0-.47,0-.81.66-.83s.78.3.77.86c0,1.72,0,3.43,0,5.15,0,.72.16,1,.92,1,1.24-.06,2.48.05,3.72,0,.82-.05,1.16.2,1.16,1a2.54,2.54,0,0,0,.46,1.78c-.07-3.06,0-5.93,2.54-8.38a11.93,11.93,0,0,0-.45,9.54c-.31-3.51-.29-6.64,2.16-9.18a12.58,12.58,0,0,0-.28,8.82c-.26-3.19-.1-6.26,2.23-8.78a15,15,0,0,0-.85,6.89,1.4,1.4,0,0,1-.2,1.24,1.42,1.42,0,0,0,.27,1.85,1.44,1.44,0,0,0,1.83.33c.2-.12.42-.24.64,0,0,3.29-.45,6.47-2.57,9.17a6.11,6.11,0,0,1-5.44,2.64c-1.31-.09-2.62-.05-3.94-.07,0-1.28-1.23-2.06-1.25-3.4-.52.74-.1,1.2.28,1.65A1.32,1.32,0,0,1,215.38,179.23Z"/><path class="cls-2" d="M216.33,152.14v.73c-.82.47-1.7.17-2.56.23s-1.81,0-2.72.05a2.89,2.89,0,0,1-1.68-.51c-.17-.31-.72-.22-.72-.7a1.64,1.64,0,0,0,.14-.3c-.12.09-.07.28-.21.37-.86.17-1.48-.64-2.31-.58l-2.2-.86c0-.28-.49-.18-.44-.46s.39-.35.66-.37a1.6,1.6,0,0,1,.89.29c.44.22.91.45.72-.47a.58.58,0,0,1,.65-.68c1.07.16,1.58-.6,2.19-1.2.2-.19.39-.39.6-.58.7-.67,1.57-1.27.75-2.42-.08-.12,0,0,0-.11.61-2.57-1.35-3.51-3-4.67-.71-.52-1.48-1-1.16-2.09.67-.6,1,.12,1.39.37-.4-.65-1.1-1-1.61-1.7.19.47.68.79.27,1.29-1.17.38-1.85-.07-1.81-1.32,0-.79,0-1.31-1-1.27a.59.59,0,0,1-.57-1c.22-.35.26-.58-.07-.78-.6-.37-1.1-.85-1.75-1.19-1-.53-1.19,0-1.42.69-.17.53-.23,1.21-1.08.76-.62-.3-.49-.85-.42-1.36a3.6,3.6,0,0,0-1.34-3.51c-3.24-2.5-6.36-5.19-10.4-6.36-1-.29-1.2-.67-.77-1.64,2.43-5.47,6.07-9.7,11.85-11.78a16.05,16.05,0,0,1,7.08-.75.89.89,0,0,1,.33.61,9.15,9.15,0,0,0,1.11,3.49.8.8,0,0,1,0,.9c-6.06,5.53-7.89,13.63-7.58,19.63l.31-1a.62.62,0,0,1,.1.75,6.89,6.89,0,0,0,0-2.31l.39-1.52c1-.92,2.07.07,3.11,0,.25,0,.3.42.3.7a1.63,1.63,0,0,0,1.29,1.64,8.35,8.35,0,0,1,2.34,1.59,1.24,1.24,0,0,1,.52,1.56c-.67.54-1-.23-1.42-.38a23.05,23.05,0,0,0,1.63,1.69c-.23-.51-.75-.94-.08-1.4,1.21-.09,1.69.37,1.63,1.55,0,.36-.27.82,0,1,.67.48,1,1.26,1.63,1.72.3.21.51,0,.61-.33s0-.81.6-.67a.89.89,0,0,1,.77.81c0,.54.18.73.72.84s.48.55.22,1c-.12.2-.11.39.15.46s.38-.07.45-.28a3.67,3.67,0,0,0,.09-1.19c0-3.64,0-7.28,0-10.92,0-1.47.34-2.06,1.16-2,1.28.16.93,1.23.94,2q.06,5.58,0,11.16a1.26,1.26,0,0,0,.61,1.25v1c-.19.65-1.1,1-.68,1.75a.82.82,0,0,1,.43-.87c.37,1.08,0,2.16.24,3.18v.5A38.51,38.51,0,0,0,216.33,152.14Z"/><path class="cls-2" d="M206.52,134.39a2.11,2.11,0,0,0-1.34-1.94c-.72-.35-1.29-.92-2.08-1.22a1.31,1.31,0,0,1-.93-1.79c.08-.17-.1-.54-.2-.47-.94.65-1.85-.91-2.78,0l-.16-.15a22,22,0,0,1,4.45-10,18.82,18.82,0,0,1,4-3.89c.46-.22.86,0,1.26.17a7.36,7.36,0,0,0,8.22-1.38,1.16,1.16,0,0,1,1-.42c0,3.12,0,6.25,0,9.38a4.16,4.16,0,0,0-1.52,3.56c0,4.8,0,9.59,0,14.39-.62-.39-.34.65-.93.46v-5.53c0-2.56,0-5.12,0-7.67,0-.49.43-1.35-.59-1.39s-.83.76-.83,1.37c0,3.92,0,7.83,0,11.75,0,.51.39,1.26-.49,1.51s-.93-.54-1.4-.88c.31-.29,1-.06.85-.65s-.58-.07-.89-.08-.7,0-.39-.53c.45-.76-.05-1-.79-1.39.26.66.46,1.25-.3,1.48s-1.19-.45-1.46-1c-.19-.35-.27-.58-.7-.71a.8.8,0,0,1-.53-1.14C208.32,134.81,208,134.42,206.52,134.39Z"/><path class="cls-3" d="M42.93,141.46a21.32,21.32,0,0,1,2,11.72A14.4,14.4,0,0,1,42.9,159c2.22-6.25,1.21-12-2.62-17.32,2.59,5.87,3.13,11.72-.17,17.55,2.38-6.54,1.25-12.5-2.9-18,2.86,5.77,3.64,11.6.43,17.53,2.09-6.33.92-12.08-3-17.33A24.31,24.31,0,0,1,37,150.08a15.57,15.57,0,0,1-2,8.74,17.68,17.68,0,0,0-2.87-16.92c2.64,5.6,3.39,11.23.27,16.91a17.56,17.56,0,0,0,.24-10.87,21.43,21.43,0,0,0-6.15-9.39l32.45-2.49c-1.22,2.79-2.08,3.87-2.82,3.46.77,1.31-.44,1.91-.88,2.92L54,140.7c.64,1.44,1.33,2.87-.41,4.17a24.85,24.85,0,0,0-3-4.81c.67,1.53,1.3,3.06,1.86,4.64A2.75,2.75,0,0,1,51.8,148a21.56,21.56,0,0,0-1.8-4.55,16,16,0,0,0-1.53-2.29,35.53,35.53,0,0,1,1.64,5.29c.3,1.8,1.11,3.66-.59,5.42a18.88,18.88,0,0,0-3.93-10.72c2.42,5.48,3.38,11,.51,16.61a21.27,21.27,0,0,0,.36-8.52A17.88,17.88,0,0,0,42.93,141.46Z"/><path class="cls-2" d="M10.15,160.19,23.42,141c1.76-2.55,1.8-2.57,3.83-.21,3.39,3.95,5.43,8.4,4.83,13.77a18.15,18.15,0,0,1-1.21,4.47,1.13,1.13,0,0,1-1.24.8c-4.79.08-9.58.22-14.36.31C13.61,160.22,12,160.19,10.15,160.19Z"/><path class="cls-2" d="M198.33,133.69c.16,0,.43,0,.45-.08a12.38,12.38,0,0,0,.92-2.37c1.34.85,3,1.35,3.86,2.86,0,.55-1.05-.29-.82.56.15.54.6.24.91.21,1-.12,1,.47.92,1.19-.19,1.42,0,1.66,1.47,1.69a2.29,2.29,0,0,0,1.33,1.95c.81.51,1.53,1.14,2.35,1.65,1,.63.56,1.73.63,2.64.05.66-.17,1.42,1.1,1.56-1.34,1.3-2.5,2.39-3.63,3.51-.32.32-.53.31-.92.09s-.72,0-.84.49c-.07.31,1,.38.15.78a.91.91,0,0,1-1.31-.3c-.18-.26-.54-.17-.79-.12-.6.13.13.38,0,.57l-.35-.08a2.32,2.32,0,0,1-2.14-2.43,55.67,55.67,0,0,0-3.24-14A1.32,1.32,0,0,1,198.33,133.69Z"/><path class="cls-2" d="M173,112.05l18.58-2.62a23.6,23.6,0,0,0-7.25,11.6c-1.51-1.54-3.49-1.57-5.32-2a3,3,0,0,1-1.93-1.23C175.72,116,175,113.77,173,112.05Z"/><path class="cls-4" d="M228.09,165.76a16.81,16.81,0,0,1,.7-6.26,6.34,6.34,0,0,1,1.67-2.41c-1.12,3.19-1.49,6.07-.33,9-.26-3.21-.17-6.33,2.24-8.88a12.34,12.34,0,0,0-.32,8.61c0-3.11-.14-6.25,2.37-8.67-1.27,3.27-1.56,6.54.08,9.86h-6.15a.5.5,0,0,1-.36-.46A1.14,1.14,0,0,1,228.09,165.76Z"/><path class="cls-5" d="M277.05,176.42c1-.71,1.33-1.93,2.32-2.66a10.13,10.13,0,0,1,10.23-1.4l-1.23,2.36c-1,0-1.85-.44-2.83-.43a5.68,5.68,0,0,0-5.55,3.45c-.14.32-.22.7-.59.87A7.68,7.68,0,0,1,277.05,176.42Z"/><path class="cls-6" d="M204.79,104.69c.59,0,.66-.58.83-.89,2.12-3.89,9.59-5.42,12.93-2.25l-1.76,1.34a3.48,3.48,0,0,1-1.63-.11,6.21,6.21,0,0,0-6.28,1.51,2.46,2.46,0,0,1-1.15.8Z"/><path class="cls-7" d="M135,41.77c0,.4,0,.81,0,1.2.19,1.59,0,2.85-1.93,3.32a2,2,0,0,0-1.32,2.31,2.32,2.32,0,0,0,1.8,2.15,2.52,2.52,0,0,0,2.78-.94,13.93,13.93,0,0,0,1-1.51,2.94,2.94,0,0,1-1.52,3.85,4.09,4.09,0,0,1-3.39-7.45,1.29,1.29,0,0,0,.91-1.48c0-1.19,0-2.39.05-3.59C134.26,40.07,134.42,41.07,135,41.77Z"/><path class="cls-8" d="M137.86,179.71a12.09,12.09,0,0,1-2.82,0c-.12-2.07,1-3.52,2.42-4.8.26-.24.56-.44.84-.67a5.52,5.52,0,0,1,2.69-.74c.73.22,1.5.11,2.23.31a7.6,7.6,0,0,1,5.37,4.63c.21.49.73.73.79,1.27a10.77,10.77,0,0,1-2.6,0,12.49,12.49,0,0,0-1.26-2,4.68,4.68,0,0,0-7.36.14A1.76,1.76,0,0,0,137.86,179.71Z"/><path class="cls-6" d="M135,41.77c-.91-.44-1.13-1.39-1.62-2.14-.1-.23,0-.53-.24-.7a8.25,8.25,0,0,1-.21-5.24c.11-.35.45-.69.13-1.09a.8.8,0,0,1,.88-.64c.86,0,1.08-.38,1-1.15a1,1,0,0,1,.36-1.07c.64,0,.91-.91,1.65-.68a9.4,9.4,0,0,1,0,2.37,7.3,7.3,0,0,1-.71,1.85,5.55,5.55,0,0,0,0,5.36c.27.57.77,1,.77,1.72C136.4,41,135.28,40.79,135,41.77Z"/><path class="cls-9" d="M217.87,122.68v-9.33a9.86,9.86,0,0,1-4.19,2.58,9,9,0,0,1-6.22-1,11.29,11.29,0,0,1,2.69-1.61,8.08,8.08,0,0,0,2.81.32,4.6,4.6,0,0,0,2.95-1.67c.13,0-.06-.24,0-.1s0,0-.07.09a.7.7,0,0,1-1-.15c.07,0,.14-.11.21-.12,2.22-.28,2.92-.41,2.95,2.42,0,2.48,0,5,0,7.43C218.06,121.92,218.22,122.35,217.87,122.68Z"/><path class="cls-6" d="M71.2,104.38c1.86.06,2.56,1.52,3.28,2.83,1.56,2.82-.2,7-3.28,8l0-2.16c.49-1,1.41-1.73,1.39-3a3.51,3.51,0,0,0-.85-2.66,2.82,2.82,0,0,1-.51-1.06Z"/><path class="cls-6" d="M137.86,179.71c-.57-.2-.81-.46-.48-1.13a4.83,4.83,0,0,1,3.94-2.88,4.49,4.49,0,0,1,4.48,1.87c.45.65,1.23,1.18,1,2.16l-.76,0a3.88,3.88,0,0,1-2.36-.9A2.6,2.6,0,0,0,140,179a2.63,2.63,0,0,1-1.57.69Z"/><path class="cls-10" d="M149.38,179.71a1.44,1.44,0,0,1-1.06-1.07,7.11,7.11,0,0,0-6.1-4.65,2.14,2.14,0,0,1-1.26-.29,5.7,5.7,0,0,1,4.38-1.36,8.85,8.85,0,0,1,5,6.72c0,.2-.11.44-.17.67Z"/><path class="cls-11" d="M129.26,118.16c.79-.39,1.52-1.17,2.5-.75s2,.49,2.05,1.69a3.72,3.72,0,0,1-1.52,3.54,2,2,0,0,1-2.58-.22,3.3,3.3,0,0,0-1-3.4C128.17,118.4,128.59,118.15,129.26,118.16Z"/><path class="cls-12" d="M279.4,178.61c1-4.76,6.6-5.54,9-3.89l-.69,1.23a.89.89,0,0,1-.57.12,4.92,4.92,0,0,0-5.74,3.16C280.58,179.44,280,178.89,279.4,178.61Z"/><path class="cls-1" d="M137,40.36a6.26,6.26,0,0,1-.63-7.93,11,11,0,0,0,.6-1c0,.64.21,1.09.95.94s.8.24.91.73c-.62.94-1.42,1.78-1.33,3.06a4.19,4.19,0,0,0,.79,2.42c.22.28.65.53.34,1A5.69,5.69,0,0,1,137,40.36Z"/><path class="cls-13" d="M221.89,106a9.78,9.78,0,0,1-.47,5.83,12.28,12.28,0,0,1-1.19,1.89c0-1,0-1.91,0-2.87a4.3,4.3,0,0,0-.66-2.73.53.53,0,0,1-.06-.1c-.49-1-.41-2.51.3-2.89C220.73,104.66,221.22,105.67,221.89,106Z"/><path class="cls-1" d="M207.73,105.09c2-2.51,4.16-3.54,7.92-2.5.38.11.76.2,1.14.3l-.7,1.49a1.19,1.19,0,0,1-.81.06,5.67,5.67,0,0,0-5.16,1.15A6,6,0,0,1,207.73,105.09Z"/><path class="cls-14" d="M281.37,179.23c0-1.74,2-3.43,4.08-3.57a5.29,5.29,0,0,1,2.23.29c-.6.77-1.18,1.57-1.81,2.31C284.62,179.7,283,179.37,281.37,179.23Z"/><path class="cls-6" d="M138.37,174.46a8.49,8.49,0,0,0-3.33,5.25h-2.45a9,9,0,0,1,1.45-4.49C135.41,174.55,136.79,174,138.37,174.46Z"/><path class="cls-15" d="M64.51,170.47c.22-.52.68-.3,1-.31,1.67,0,3.34,0,5,0,.53,0,.86,0,1-.72a1.73,1.73,0,0,1,2.32-1.39c.43.13.31.26.39.8s.14,1.11.7,1.23,1.1.27,1.6-.37a21.82,21.82,0,0,1,2.18-2.23c.18-.18.37,0,.55,0-.11.9.06,2-.42,2.65s-1.72.21-2.61.22c-3.49.07-7,0-10.49,0C65.38,170.41,64.94,170.44,64.51,170.47Z"/><path class="cls-16" d="M210.12,105.59c.68-1.23,2.84-2,4.61-1.61.46.1.91.26,1.36.4-.55,1.13-.42,2.37-.42,4C214.23,106.09,212,106.26,210.12,105.59Z"/><path class="cls-17" d="M228.09,165.76c.06.26.41.51,0,.79-1,1.06-1.85,1.21-2.49.41-.42-.54-.56-1.07.29-1.36l.22.53c-.22-3.29-.21-6.5,2.34-9.07C227.45,159.93,226.84,162.8,228.09,165.76Z"/><path class="cls-18" d="M153.71,17.8c-.18.2-.42.18-.66.2-2,.08-2,.08-2,2.1V61.91h-.22V17.82Z"/><path class="cls-19" d="M205.82,113.29a10.48,10.48,0,0,1-1.49-5l2.67.45a9.74,9.74,0,0,1,1,2.88Z"/><path class="cls-7" d="M138.4,179.71a3.47,3.47,0,0,0,1.24-.8,3,3,0,0,1,4.37-.25,4,4,0,0,0,2,1.05C143.48,179.82,140.94,179.85,138.4,179.71Z"/><path class="cls-20" d="M138.6,39.58a4.91,4.91,0,0,1-1.43-4.06,2.83,2.83,0,0,1,1.63-2.42l.06,5.85A.66.66,0,0,1,138.6,39.58Z"/><path class="cls-21" d="M71.21,106.34a4.46,4.46,0,0,1,1.69,3.51A3.78,3.78,0,0,1,71.18,113Z"/><path class="cls-22" d="M51.19,176.84a13.21,13.21,0,0,1-2.33-8.3c0-.72.59-.49,1-.54.57-.09.54.28.48.67A14.55,14.55,0,0,0,51.19,176.84Z"/><path class="cls-23" d="M214.9,111.81l1.29.07a4.32,4.32,0,0,1-6,1.44A14.42,14.42,0,0,1,214.9,111.81Z"/><path class="cls-24" d="M208,111.62a4.5,4.5,0,0,1-1-2.88l4.87,1A23.82,23.82,0,0,0,208,111.62Z"/><path class="cls-25" d="M57.41,178a10.89,10.89,0,0,1-2.54-6.35,27.1,27.1,0,0,1,0-3c0-.44.11-.78.69-.73s.33.51.28.77A13.54,13.54,0,0,0,57.41,178Z"/><path class="cls-26" d="M58.49,177.07a13,13,0,0,1-1.74-8.5c0-.44.07-.81.66-.72s.33.55.28.82a13.87,13.87,0,0,0,1.09,8.4C58.68,177.2,58.58,177.2,58.49,177.07Z"/><path class="cls-27" d="M53.3,177.59a12.55,12.55,0,0,1-2.17-7.77c0-.48.07-1,.11-1.44s.4-.42.71-.41.3.32.26.52a13.69,13.69,0,0,0,1.22,8.94S53.39,177.49,53.3,177.59Z"/><path class="cls-28" d="M80.52,166.42a4.45,4.45,0,0,0,.47,2,14.86,14.86,0,0,0,1,7.63.26.26,0,0,1-.06.39A12.16,12.16,0,0,1,80.52,166.42Z"/><path class="cls-29" d="M54.81,176.83a12.25,12.25,0,0,1-1.74-8.33c.06-.46.25-.6.69-.55.62.07.27.43.23.69A15.58,15.58,0,0,0,54.81,176.83Z"/><path class="cls-18" d="M171.27,42c-.45-.38-.25-.9-.25-1.35,0-5.54,0-11.09,0-16.63,0-1-.29-1.33-1.28-1.26a12.26,12.26,0,0,1-3.46-.23h5Q171.45,32.28,171.27,42Z"/><path class="cls-5" d="M290.3,173c.51,0,.75.49,1.13.72A9.81,9.81,0,0,1,288,178.5,31.4,31.4,0,0,0,290.3,173Z"/><path class="cls-2" d="M211.06,153.15c.71-.56,1.53-.22,2.29-.27,1-.06,2,0,3,0,0,.2,0,.42-.24.41A31.41,31.41,0,0,1,211.06,153.15Z"/><path class="cls-2" d="M216.32,145.66c-.48-.91,0-1.92-.39-3.16,0,.95-.07,1.6-.1,2.38a2.27,2.27,0,0,1,.5-3.28Z"/><path class="cls-21" d="M228.39,19.52v2.72l-.28,0c0-.54,0-1.07,0-1.61.08-1.17-.58-1-1.32-.9.06.37.22.38.37.41s.67.08.5.46-.49.33-.76,0c-.13-.15-.29-.05-.43,0C226.32,19.25,226.32,19.25,228.39,19.52Z"/><path class="cls-2" d="M216.33,152.14a17.4,17.4,0,0,1,0-6Z"/><path class="cls-2" d="M206.28,151.43c.91-.44,1.53.62,2.39.47h0c.18.3.63.33.7.73A13.3,13.3,0,0,1,206.28,151.43Z"/><path class="cls-6" d="M137,29.05l0-4.61A13,13,0,0,1,137,29.05Z"/><path class="cls-2" d="M198.64,130.32c.41.75.11,1.55.21,2.36-.41-.21-.19-.55-.3-.8Z"/><path class="cls-30" d="M81.94,176.47l.06-.39,1,1.56A1.66,1.66,0,0,1,81.94,176.47Z"/><path class="cls-31" d="M58.49,177.07h.29c.3.42.6.85.91,1.27A2.14,2.14,0,0,1,58.49,177.07Z"/><path class="cls-18" d="M171.27,42.46v8.83c-.07-2.95-.61-5.9,0-8.84Z"/><path class="cls-32" d="M177.24,165.34c-3.69-1.17-7.19-2.49-10.79-3.66l9.48,5.91-.05.11-19.17-7.44c6,4.05,12.18,8,18.49,11.62-2-.89-4-1.72-6-2.67q-7.81-3.75-15.56-7.61c-1.89-.95-3.42-2.49-5.35-3.39a8.75,8.75,0,0,0-3-.89l1.55,1.76h-5.88a3.82,3.82,0,0,0-.83.06c-1.66.33-1.95.16-1.88-1.5a36.68,36.68,0,0,1,.44-4,4,4,0,0,1,1.76-2.34,7.06,7.06,0,0,1,6.14-1.52,168.61,168.61,0,0,1,25.91,6.54c.12,0,.22.11.33.14a3.37,3.37,0,0,1,2.67,3A44.85,44.85,0,0,0,177.24,165.34Z"/><path class="cls-32" d="M154.93,92.9h9.65c.08.14,0,.15-.06.2-.88.54-2.27,1.17-2,2.15A3.44,3.44,0,0,0,167,97.14c.84-.36,1.43-1.14,2.31-1.46.33-.12.16-.36,0-.57a2.9,2.9,0,0,0-1.6-1,2.75,2.75,0,0,1,2.94,2.3c.09,3.07.32,6.15-.62,9.15,0,.08,0,.17,0,.24-1.65,2.52-3,5.29-5.17,7.39-1.13,1.09-2.86.81-4.36.52a3.93,3.93,0,0,0-1.74,0,3.24,3.24,0,0,1-2.33-.14,1.46,1.46,0,0,1-.91-1.42c0-.66.5-1,1.14-1.21a11,11,0,0,1,3.57-.23c.84,0,.85-.29.57-.92a1.56,1.56,0,0,0-1.68-1.06c-.32,0-.63.14-.94.16s-1.08.5-1.21-.11.57-.78,1.1-.78a34.25,34.25,0,0,0,6.32-.31c.44-.09.29.57.69.47.42-1.48.11-1.76-1.38-1.66a8.22,8.22,0,0,1-3-.31,3.64,3.64,0,0,0-2.52.05c-.46.18-1.16.34-1.34-.3s.51-.85.92-.91c1.21-.17,2.2-1,3.47-1a1,1,0,0,0,1-.71.42.42,0,0,0-.21-.52,1,1,0,0,0-1.13.16,1.52,1.52,0,0,1-2.31-.12c-.39-.37-.95-.32-1.47-.41a1.73,1.73,0,0,1,.93-1.35,3.3,3.3,0,0,0,1.59-2.86c.37-3.55-.08-4.2-3.66-4.87l-.81-.17C155,93.19,154.9,93.1,154.93,92.9Z"/><path class="cls-32" d="M149.33,145.54c3.61-.45,7.13-.91,10.65-1.31.76-.08.83-.53,1-1.09a37,37,0,0,1,3.61-10.46,9.59,9.59,0,0,1,1.11-1.55,43.89,43.89,0,0,0-1.39,9.64c.39-.89.78-1.78,1.16-2.67a40.67,40.67,0,0,1,3.28-6.23c.36-.55.66-.68,1.25-.35,1.14.64,2.32,1.22,3.49,1.82.42.22.87.39,1.28.64.57.34,1.89-.26,1.57,1.24-.17.8.11,1.61-.39,2.42a3.48,3.48,0,0,0-.06,3.3c.69,1.56,0,3.14.1,4.7,0,.35-.43.26-.69.27-6.43.17-12.86.4-19.29.11-1.84-.08-3.67-.13-5.51-.2C150.1,145.8,149.68,145.93,149.33,145.54Z"/><path class="cls-32" d="M138.37,174.46c-1.49,0-2.87.65-4.33.76-.13-.19-.85.31-.5-.38a59.71,59.71,0,0,1,5.79-9.87c-.55,2-1.11,4.07-1.67,6.1l.15.08c.78-1.23,1.58-2.46,2.34-3.71.93-1.54,1.85-3.08,2.7-4.66.27-.51.6-.47,1-.53,4.48-.63,8,1.58,11.47,3.87.79.53,1.55,1.11,2.52,1.8l-6.7,2.39-5.84,2A25.22,25.22,0,0,0,141,173.7,12.84,12.84,0,0,0,138.37,174.46Z"/><path class="cls-32" d="M125.7,147.22a4.29,4.29,0,0,0,1.69-4c-.1-1.95.73-3.73,1.42-5.52.15-.4.34-.44.7-.19a27.13,27.13,0,0,1,5,3.9,5.35,5.35,0,0,1,1.19,3.31c.22,2.35.33,4.7.51,7.05,0,.56,0,.84-.73.85-3.15,0-6.3.13-9.45.26-.83,0-1-.15-1-1,.07-1.24.47-1.67,1.76-1.62a55.65,55.65,0,0,0,7.41-.17C131.58,148.5,128.73,147.91,125.7,147.22Z"/><path class="cls-33" d="M135.2,155a16.46,16.46,0,0,0-4.6,4c1.62-.59,3.08-1.14,4.55-1.66.28-.1.81-.47.78.17s.79,1.24-.3,1.57a35.66,35.66,0,0,0-9.07,4.48c-.36.23-.76.67-1.17.46s-.19-.79-.23-1.2a8.44,8.44,0,0,0-.17-2.5,1,1,0,0,1,.61-1.28c.72-.39.57-.85.17-1.35a2.92,2.92,0,0,1-.46-.55,2,2,0,0,1,0-1.62c.2-.42.74-.14,1.11-.11A40.37,40.37,0,0,0,135.2,155Z"/><path class="cls-33" d="M168.05,152.38c2.92-.86,5.47-1.77,8.1-2.34,1.75-.38,3.54.33,5.32.55a24.46,24.46,0,0,1,2.66.63c.93.22,1.34.68.68,1.59a.33.33,0,0,0-.06.1c-.65,1.83-1.75,2.49-3.83,2.15A80.66,80.66,0,0,1,168.05,152.38Z"/><path class="cls-32" d="M167.36,125.21a34.47,34.47,0,0,0,3.16-7.7,12.72,12.72,0,0,1,2.33,3c.25.35.43.77.7,1.1a7.57,7.57,0,0,1,1.45,7.46c-.21.68,0,1.43-.44,2.14A16.63,16.63,0,0,0,167.36,125.21Z"/><path class="cls-34" d="M157.83,128.3c-1.66-1-3.2-1.9-4.64-2.92-.77-.55-1.22-.45-1.75.24-.41.54-.89,1-1.36,1.53-.06-.09-.14-.17-.13-.18,1.32-1.91,1.14-3.85.26-5.87-.62-1.42-1.1-2.9-1.67-4.41,1-.14,1.5.52,1.92,1.2.62,1,1.12,2.1,1.69,3.14,1.25,2.31,3.4,3.89,4.91,6A3.25,3.25,0,0,1,157.83,128.3Z"/><path class="cls-35" d="M154.22,97.63c1.77.21,2,.63,1.27,2.22-1.13,2.39-1.87,2.48-3.44.37a3.64,3.64,0,0,1-.76-1.34,1.59,1.59,0,0,1,1.79-1.45A7.57,7.57,0,0,1,154.22,97.63Z"/><path class="cls-36" d="M158.29,138.71c-.9-3.19-1.17-6.63-4-9a4,4,0,0,0,1.15.4c2.22.09,2.54,1.51,2.54,3.32S158.19,136.94,158.29,138.71Z"/><path class="cls-32" d="M91,132.43c-2.22.1-2.23.1-2-1.88.31-2.36.66-4.72,1-7.09a1.37,1.37,0,0,1,1.4-1.41c2.54-.23,5.07-.55,7.6-.87,1-.12,1.37.26,1.21,1.29-.43,2.67-.77,5.36-1.18,8a10,10,0,0,1-1.74,3.76c-.46.72-1.39.07-2.11.09-.55,0-.41-.53-.37-.83.13-.86-.36-1-1-1.07A10.41,10.41,0,0,0,91,132.43Z"/><path class="cls-33" d="M114.9,130.24c0,1.8,0,3.6,0,5.39,0,1.38-.25,1.66-1.59,1.62-1.91-.05-3.83-.15-5.74-.23-.9,0-1.33-.54-1.2-1.4.57-3.94,1.18-7.88,1.78-11.82a1.16,1.16,0,0,1,1.38-1.14c1.35.12,2.7.27,4,.36,1,.07,1.35.63,1.33,1.59C114.88,126.48,114.9,128.36,114.9,130.24Z"/><path class="cls-37" d="M115.2,146.87c0,1.48,0,2.95,0,4.43,0,1.3-.53,1.81-1.84,1.78s-2.47-.18-3.7-.21c-.77,0-.66-.61-.72-1-.28-2.21-.52-4.43-.78-6.65-.15-1.3-.31-2.61-.5-3.91-.09-.64,0-1,.79-.91,1.71.12,3.42.18,5.14.26,1,.06,1.45.73,1.46,1.68,0,1.51,0,3,0,4.55Z"/><path class="cls-38" d="M98.58,143.58c0-2.44,0-4.88,0-7.31a2,2,0,0,1,.41-1.35c2.08-2.61,2.6-5.73,2.92-8.93.15-1.38.36-2.77.58-4.14a1.79,1.79,0,0,1,2.36-1.18c.49.23.43.64.37,1-.64,4.83-1.32,9.65-1.94,14.48a1.52,1.52,0,0,1-2,1.51c-1.1-.14-1.63.2-1.77,1.39-.18,1.52-.58,3-.89,4.53Z"/><path class="cls-39" d="M69.6,152.58q-1-7.16-2.06-14.31a2.54,2.54,0,0,0-.84-1.78.69.69,0,0,1-.12-.88c.19-.46.54-.2.81-.12,1.68.48,3.35,1,5.17,1.54a5.77,5.77,0,0,1-1,.78c-1.78.83-2,2.26-1.94,4.06.14,3.58,0,7.18,0,10.77Z"/><path class="cls-40" d="M94,140.48c-4,0-8.08,0-12.15,0a4.79,4.79,0,0,0-4.33,2.26c-1.53,2.29-3.15,4.5-4.81,6.71a33.63,33.63,0,0,1,2.32-5c.52-1.08,1.07-2.13,1.64-3.18a3.85,3.85,0,0,1,3.87-2.3q5.25.48,10.48,1.1A8.37,8.37,0,0,1,94,140.48Z"/><path class="cls-41" d="M87.86,123.46c-.43,2.89-.88,5.68-1.26,8.47-.14,1-1,1-1.61,1.19-.39.09-.87-.15-.74-.89.51-2.94.94-5.89,1.38-8.84.15-1,1-.85,1.57-.88S87.85,123.06,87.86,123.46Z"/><path class="cls-42" d="M92.36,175.26c4,.87,6.93-1.29,7.39-5.48a14.45,14.45,0,0,0,0-3.22,12.75,12.75,0,0,0-1.06-3.2c3.22,3.42,2.86,9.69-.51,12.43C96.36,177.29,93.35,176.91,92.36,175.26Z"/><path class="cls-43" d="M109.53,176.15a2.31,2.31,0,0,0,3-1.05c.94-1.53.81-3.21-.5-5a3.48,3.48,0,0,1,2.09,3.34,3.59,3.59,0,0,1-1.85,3.62C111.18,177.58,110.34,177.11,109.53,176.15Z"/><path class="cls-44" d="M100,157.61a2.17,2.17,0,0,1-2.4-1.41,5.33,5.33,0,0,1,.24-5.46,1.67,1.67,0,0,1,2-.9C97.43,151.78,97.4,155.36,100,157.61Z"/><path class="cls-45" d="M110,119.62a3.16,3.16,0,0,0,.18-4,1.81,1.81,0,0,1,1.33,1.91A2,2,0,0,1,110,119.62Z"/><path class="cls-46" d="M83.14,118.74c1.36,1.27,1.36,2.48-.09,3.77A3.77,3.77,0,0,0,83.14,118.74Z"/><path class="cls-32" d="M234.61,134.35c-1.64,0-3.27,0-4.91,0-1,0-1.38-.38-1.36-1.35q0-3.72,0-7.43a1.21,1.21,0,0,1,1.26-1.4l9.18-.84a1.08,1.08,0,0,1,1.36,1.1c.28,2.66.6,5.31.91,8,.12,1.06-.33,1.58-1.4,1.58h-5Z"/><path class="cls-47" d="M268.46,159.81H257c-.46,0-.66-.13-.84-.6a28.12,28.12,0,0,0-2.68-5.2c-3.11-4.78-7.52-5.69-12.26-2.49a7.11,7.11,0,0,1,6-3.42,54.2,54.2,0,0,1,7.54-.08,15.11,15.11,0,0,1,5.49,1.54c.66.33,1.17.59.4,1.52a2.33,2.33,0,0,0,1.2,3.73c.2.07.42.13.38.36-.17,1,.62,1.19,1.22,1.53,1.69,1,3.4,1.93,5.1,2.89Z"/><path class="cls-48" d="M250.5,162.25c-2.24-1.78-3.78-1.87-5.32-.44a6.49,6.49,0,0,0-2,4.12,9.62,9.62,0,0,0,1.05,5.75c-.7.19-1-.23-1.37-.57-2.88-2.9-1.76-9.42,1.9-11.25A4.35,4.35,0,0,1,250.5,162.25Z"/><path class="cls-49" d="M279.11,146.62c-2,0-4,0-6,0-.41,0-1.22.4-1.21-.45s.76-.38,1.16-.38c3.8,0,7.6,0,11.39,0,.61,0,1.13,0,1-.84-.06-.49.39-.53.64-.37.59.37.2,1,.28,1.53s-.31.53-.7.53c-2.19,0-4.39,0-6.59,0Z"/><path class="cls-50" d="M279,158.57c-2.08,0-4.15,0-6.23,0-.34,0-.9.2-.89-.46s.61-.39.91-.39c3.83,0,7.66,0,11.49,0,.61,0,1.32.2,1.21-.89-.06-.49.55-.41.7-.26.44.44.14,1,.19,1.59s-.37.42-.68.42H279Z"/><path class="cls-51" d="M279.09,152.58c-1.95,0-3.91,0-5.87,0-.45,0-1.26.36-1.29-.37s.81-.41,1.23-.42c3.76,0,7.51,0,11.27,0,.57,0,1.16.09,1.05-.8-.05-.38.18-.47.52-.46s.35.2.4.46c.24,1.33,0,1.61-1.32,1.61h-6Z"/><path class="cls-52" d="M278.76,154.78c1.91,0,3.83,0,5.74,0,.61,0,1.14,0,1-.84-.07-.37.14-.47.48-.49s.42.2.46.52c.16,1.44.09,1.53-1.37,1.53l-11.6,0a3.45,3.45,0,0,1-.72,0c-.3-.06-.85.15-.81-.41s.56-.32.87-.32C274.77,154.77,276.76,154.78,278.76,154.78Z"/><path class="cls-53" d="M279.16,149.53c-2.07,0-4.15,0-6.22,0-.36,0-1.05.29-1-.37s.7-.33,1.07-.33c3.75,0,7.5,0,11.26,0,.6,0,1.36.21,1.23-.87,0-.31.21-.38.48-.37s.38.14.44.42c.26,1.18,0,1.54-1.25,1.54h-6Z"/><path class="cls-54" d="M268.57,153.64c0,1.08-.62,2.09-1.33,2.13s-1.38-.92-1.41-2.05.61-2.31,1.4-2.29S268.56,152.4,268.57,153.64Z"/><path class="cls-55" d="M291.37,153.62c0,1.07-.59,2.1-1.3,2.15s-1.44-.94-1.44-2.14.62-2.2,1.37-2.2S291.35,152.35,291.37,153.62Z"/><path class="cls-41" d="M230.75,148.14c0,.32,0,.64,0,1,0,.65.07,1.21-.94,1.19s-1-.43-1-1.16a11.19,11.19,0,0,0,0-1.92c-.09-.91.22-1.16,1.14-1.09.65,0,.84.22.79.82,0,.39,0,.8,0,1.2Z"/><path class="cls-56" d="M275.2,167.79c.29-.6.7-.49,1.06-.5,2.52,0,5,0,7.56,0,.77,0,1-.21.93-.93-.06-1,0-2.07,0-3.26.66.48.43,1,.44,1.48,0,1,.34,2.44-.19,3s-2,.21-3,.22C279.73,167.8,277.47,167.79,275.2,167.79Z"/><path class="cls-57" d="M271,166.12H270c-.19,0-.45,0-.47-.25s.28-.36.49-.33c1.24.22,1.51-.4,1.37-1.47,0-.29-.08-.66.42-.69s.49.38.51.72,0,.49,0,.72C272.44,165.9,272.1,166.45,271,166.12Z"/><path class="cls-58" d="M289.56,166.13c-.45-.15-1.28.28-1.32-.3s.76-.23,1.18-.29.62-.23.59-.68,0-.72,0-1.07.16-.41.45-.41.45.11.45.41,0,.64,0,1C291,166.18,291,166.18,289.56,166.13Z"/><path class="cls-59" d="M293.87,152.42c-.05.55-.05,1.12-.71,1.09s-.6-.63-.59-1,0-1.08.7-1S293.85,152,293.87,152.42Z"/><path class="cls-60" d="M262.8,151.42c.65.09.67.61.73,1s0,1.05-.6,1.11-.67-.48-.7-.93A1.25,1.25,0,0,1,262.8,151.42Z"/><path class="cls-34" d="M184,28c2.31.62,2.43.76,2.42,2.91,0,1.32,0,2.63,0,4a1,1,0,0,1,0,.23c-.11.22-.25.06-.39,0-.62-.08-1.53.07-1.79-.28-.46-.6-.15-1.53-.17-2.31C184,31,184,29.5,184,28Z"/><path class="cls-33" d="M135.3,29.74a.5.5,0,0,0,0,.12,5.49,5.49,0,0,1-.09,2.08c-.31.68-1.28.06-1.87.45-.09.06-.18.14-.27.21-.41-2-.08-4-.17-6,0-.53.53-.5.85-.68s.91-.44,1.57-.76Z"/><path class="cls-2" d="M214,147.58c.16.79-.27,1.07-1.08,1a1.23,1.23,0,0,0-1.12.29c-.74,1-1.93.8-2.86,1.27a.58.58,0,0,1-.76-.11c-.25-.3,0-.51.17-.72s.16-.21.26-.25a6.25,6.25,0,0,0,2.05-1.88c.5-.56,1.41-1.76,2.7-.87C213.92,146.7,214,146.63,214,147.58Z"/><path class="cls-2" d="M215.4,145.48c.18.11.3.15.3.19.16,1.88.52,3.75-.23,5.61a.81.81,0,0,1-1.08.58c-1.24-.21-2.48-.54-3.63.4-.45.36-.76-.17-.94-.46s.18-.5.47-.63a6.75,6.75,0,0,1,2.92-.47c1.44,0,2.15-.7,2.19-2.18,0-.52,0-1,0-1.56Z"/><path class="cls-2" d="M204.24,133.16a6.86,6.86,0,0,1,3.09,2.47.29.29,0,0,1,0,.42c-.18.23-.36.09-.49-.05A14.23,14.23,0,0,1,204.24,133.16Z"/><path class="cls-2" d="M208.07,138.79a6.74,6.74,0,0,1-2.78-2.19.35.35,0,0,1,0-.52c.2-.21.37-.07.5.07A10.64,10.64,0,0,1,208.07,138.79Z"/><path class="cls-2" d="M203.85,132.44c0,.24,0,.44-.24.41a1,1,0,0,1-.76-.69c-.09-.23.15-.35.35-.37C203.7,131.76,203.67,132.23,203.85,132.44Z"/><path class="cls-2" d="M208.67,151.9c0-.24-.69-.32-.2-.7.21-.17.54-.35.71,0s-.24.55-.5.75Z"/></g></g></svg>